<?xml version="1.0" encoding="UTF-8" standalone="no"?>
<!-- Created with Inkscape (http://www.inkscape.org/) -->

<svg
   xmlns:dc="http://purl.org/dc/elements/1.1/"
   xmlns:cc="http://creativecommons.org/ns#"
   xmlns:rdf="http://www.w3.org/1999/02/22-rdf-syntax-ns#"
   xmlns:svg="http://www.w3.org/2000/svg"
   xmlns="http://www.w3.org/2000/svg"
   xmlns:sodipodi="http://sodipodi.sourceforge.net/DTD/sodipodi-0.dtd"
   xmlns:inkscape="http://www.inkscape.org/namespaces/inkscape"
   width="32"
   height="32"
   id="svg5453"
   version="1.1"
   inkscape:version="0.91 r13725"
   sodipodi:docname="system-standby-32.svg"
   viewBox="0 0 32 32">
  <defs
     id="defs5455">
    <clipPath
       id="presentation_clip_path"
       clipPathUnits="userSpaceOnUse">
      <rect
         x="0"
         y="0"
         width="1129"
         height="1129"
         id="rect3578" />
    </clipPath>
    <linearGradient
       id="gradient1"
       x1="565"
       y1="71"
       x2="565"
       y2="1060"
       gradientUnits="userSpaceOnUse">
      <stop
         offset="0"
         style="stop-color:rgb(0,102,204)"
         id="stop3637" />
      <stop
         offset="1"
         style="stop-color:rgb(0,97,199)"
         id="stop3639" />
    </linearGradient>
    <linearGradient
       id="gradient2"
       x1="480"
       y1="354"
       x2="480"
       y2="830"
       gradientUnits="userSpaceOnUse">
      <stop
         offset="0"
         style="stop-color:rgb(204,255,255)"
         id="stop3660" />
      <stop
         offset="1"
         style="stop-color:rgb(131,202,255)"
         id="stop3662" />
    </linearGradient>
    <linearGradient
       id="gradient3"
       x1="701"
       y1="299"
       x2="701"
       y2="509"
       gradientUnits="userSpaceOnUse">
      <stop
         offset="0"
         style="stop-color:rgb(204,255,255)"
         id="stop3683" />
      <stop
         offset="1"
         style="stop-color:rgb(131,202,255)"
         id="stop3685" />
    </linearGradient>
  </defs>
  <sodipodi:namedview
     id="base"
     pagecolor="#ffffff"
     bordercolor="#666666"
     borderopacity="1.0"
     inkscape:pageopacity="0"
     inkscape:pageshadow="2"
     inkscape:zoom="11.46875"
     inkscape:cx="16"
     inkscape:cy="16"
     inkscape:document-units="px"
     inkscape:current-layer="layer1"
     showgrid="true"
     fit-margin-top="0"
     fit-margin-left="0"
     fit-margin-right="0"
     fit-margin-bottom="0"
     inkscape:window-width="1920"
     inkscape:window-height="1120"
     inkscape:window-x="0"
     inkscape:window-y="0"
     inkscape:window-maximized="1"
     inkscape:showpageshadow="false"
     borderlayer="true"
     showguides="true">
    <inkscape:grid
       type="xygrid"
       id="grid4063" />
    <sodipodi:guide
       position="1.1650391e-05,32.000026"
       orientation="32,0"
       id="guide4157" />
    <sodipodi:guide
       position="1.1650391e-05,2.6367188e-05"
       orientation="0,32"
       id="guide4159" />
    <sodipodi:guide
       position="32.000012,2.6367188e-05"
       orientation="-32,0"
       id="guide4161" />
    <sodipodi:guide
       position="32.000012,32.000026"
       orientation="0,-32"
       id="guide4163" />
    <sodipodi:guide
       position="2.0000117,30.000026"
       orientation="28,0"
       id="guide4167" />
    <sodipodi:guide
       position="30.000012,2.0000264"
       orientation="-28,0"
       id="guide4171" />
    <sodipodi:guide
       position="30.000012,30.000026"
       orientation="0,-28"
       id="guide4173" />
    <sodipodi:guide
       position="2.0000117,30.000026"
       orientation="28,0"
       id="guide4181" />
    <sodipodi:guide
       position="2.0000117,2.0000264"
       orientation="0,14"
       id="guide4183" />
    <sodipodi:guide
       position="16.000012,2.0000264"
       orientation="-28,0"
       id="guide4185" />
    <sodipodi:guide
       position="16.000012,30.000026"
       orientation="0,-14"
       id="guide4187" />
    <sodipodi:guide
       position="9.0000117,23.000026"
       orientation="14,0"
       id="guide4193" />
    <sodipodi:guide
       position="9.0000117,9.0000264"
       orientation="0,14.000031"
       id="guide4195" />
    <sodipodi:guide
       position="23.000042,9.0000264"
       orientation="-14,0"
       id="guide4197" />
    <sodipodi:guide
       position="23.000042,23.000026"
       orientation="0,-14.000031"
       id="guide4199" />
  </sodipodi:namedview>
  <metadata
     id="metadata5458">
    <rdf:RDF>
      <cc:Work
         rdf:about="">
        <dc:format>image/svg+xml</dc:format>
        <dc:type
           rdf:resource="http://purl.org/dc/dcmitype/StillImage" />
        <dc:title />
      </cc:Work>
    </rdf:RDF>
  </metadata>
  <g
     inkscape:label="Capa 1"
     inkscape:groupmode="layer"
     id="layer1"
     transform="translate(-384.57143,-515.798)">
    <g
       id="g3615"
       transform="matrix(0.02830481,0,0,0.02831088,384.56455,515.75854)">
      <g
         id="id2"
         class="Master_Slide">
        <g
           id="bg-id2"
           class="Background" />
        <g
           id="bo-id2"
           class="BackgroundObjects" />
      </g>
    </g>
    <g
       class="SlideGroup"
       id="g3620"
       transform="matrix(0.02830481,0,0,0.02831088,384.56455,515.75854)">
      <g
         id="g3622">
        <g
           id="id1"
           class="Slide"
           clip-path="url(#presentation_clip_path)">
          <g
             class="Page"
             id="g3625">
            <g
               class="com.sun.star.drawing.ClosedBezierShape"
               id="g3627">
              <g
                 id="id3">
                <rect
                   class="BoundingBox"
                   x="71"
                   y="71"
                   width="990"
                   height="990"
                   id="rect3630"
                   style="fill:none;stroke:none" />
                <g
                   id="g3632">
                  <defs
                     id="defs3634">
                    <linearGradient
                       id="linearGradient3815"
                       x1="565"
                       y1="71"
                       x2="565"
                       y2="1060"
                       gradientUnits="userSpaceOnUse">
                      <stop
                         offset="0"
                         style="stop-color:rgb(0,102,204)"
                         id="stop3817" />
                      <stop
                         offset="1"
                         style="stop-color:rgb(0,97,199)"
                         id="stop3819" />
                    </linearGradient>
                  </defs>
                  <path
                     style="fill:url(#gradient1)"
                     d="m 565,1060 51,-3 49,-7 47,-12 46,-17 43,-21 41,-25 38,-28 35,-32 32,-35 28,-38 25,-41 21,-43 17,-46 12,-47 7,-49 3,-51 0,0 -3,-51 -7,-49 -12,-47 -17,-45 -21,-44 -25,-40 -28,-38 -32,-35 -35,-32 -38,-29 -41,-24 -43,-21 -46,-17 -47,-12 -49,-7 -51,-3 -51,3 -49,7 -47,12 -45,17 -44,21 -40,24 -38,29 -35,32 -32,35 -29,38 -24,40 -21,44 -17,45 -12,47 -7,49 -3,51 0,0 3,51 7,49 12,47 17,46 21,43 24,41 29,38 32,35 35,32 38,28 40,25 44,21 45,17 47,12 49,7 51,3 z"
                     id="path3641"
                     inkscape:connector-curvature="0" />
                </g>
              </g>
            </g>
            <g
               class="com.sun.star.drawing.ClosedBezierShape"
               id="g3643">
              <g
                 id="id4">
                <rect
                   class="BoundingBox"
                   x="340"
                   y="300"
                   width="711"
                   height="761"
                   id="rect3646"
                   style="fill:none;stroke:none" />
                <path
                   d="m 700,300 -25,77 -81,0 59,70 -18,62 -135,-155 -160,372 187,332 c 13,1 25,2 38,2 241,0 440,-171 485,-399 L 809,380 771,379 700,300 Z"
                   id="path3648"
                   inkscape:connector-curvature="0"
                   style="fill:#005cc2;stroke:none" />
              </g>
            </g>
            <g
               class="com.sun.star.drawing.ClosedBezierShape"
               id="g3650">
              <g
                 id="id5">
                <rect
                   class="BoundingBox"
                   x="298"
                   y="354"
                   width="366"
                   height="478"
                   id="rect3653"
                   style="fill:none;stroke:none" />
                <g
                   id="g3655">
                  <defs
                     id="defs3657">
                    <linearGradient
                       id="linearGradient3831"
                       x1="480"
                       y1="354"
                       x2="480"
                       y2="830"
                       gradientUnits="userSpaceOnUse">
                      <stop
                         offset="0"
                         style="stop-color:rgb(204,255,255)"
                         id="stop3833" />
                      <stop
                         offset="1"
                         style="stop-color:rgb(131,202,255)"
                         id="stop3835" />
                    </linearGradient>
                  </defs>
                  <path
                     style="fill:url(#gradient2)"
                     d="m 313,674 10,23 11,21 14,19 15,18 16,16 18,14 19,13 20,10 22,9 21,7 23,4 23,2 23,0 24,-2 23,-5 23,-7 44,-16 -162,-446 -45,17 -22,9 -21,12 -19,13 -18,15 -16,16 -15,18 -12,19 -11,20 -9,21 -6,22 -5,22 -2,23 0,23 2,24 5,23 7,23 z"
                     id="path3664"
                     inkscape:connector-curvature="0" />
                </g>
              </g>
            </g>
            <g
               class="com.sun.star.drawing.ClosedBezierShape"
               id="g3666">
              <g
                 id="id6">
                <rect
                   class="BoundingBox"
                   x="333"
                   y="400"
                   width="287"
                   height="398"
                   id="rect3669"
                   style="fill:none;stroke:none" />
                <path
                   d="M 345,665 C 306,559 366,441 478,400 L 619,782 C 506,823 384,771 345,665 Z"
                   id="path3671"
                   inkscape:connector-curvature="0"
                   style="fill:#005cc2;stroke:none" />
              </g>
            </g>
            <g
               class="com.sun.star.drawing.CustomShape"
               id="g3673">
              <g
                 id="id7">
                <rect
                   class="BoundingBox"
                   x="593"
                   y="299"
                   width="217"
                   height="212"
                   id="rect3676"
                   style="fill:none;stroke:none" />
                <g
                   id="g3678">
                  <defs
                     id="defs3680">
                    <linearGradient
                       id="linearGradient3847"
                       x1="701"
                       y1="299"
                       x2="701"
                       y2="509"
                       gradientUnits="userSpaceOnUse">
                      <stop
                         offset="0"
                         style="stop-color:rgb(204,255,255)"
                         id="stop3849" />
                      <stop
                         offset="1"
                         style="stop-color:rgb(131,202,255)"
                         id="stop3851" />
                    </linearGradient>
                  </defs>
                  <path
                     style="fill:url(#gradient3)"
                     d="m 700,299 -25,80 -82,0 67,50 -26,80 66,-49 67,49 -26,-80 68,-50 -83,0 -26,-80 0,0 z"
                     id="path3687"
                     inkscape:connector-curvature="0" />
                </g>
              </g>
            </g>
            <g
               class="com.sun.star.drawing.CustomShape"
               id="g3689">
              <g
                 id="id8">
                <rect
                   class="BoundingBox"
                   x="640"
                   y="354"
                   width="122"
                   height="115"
                   id="rect3692"
                   style="fill:none;stroke:none" />
                <path
                   d="m 700,354 -14,43 -46,0 37,27 -14,44 37,-27 37,27 -14,-44 38,-27 -47,0 -14,-43 0,0 z m -60,0 0,0 z m 121,114 0,0 z"
                   id="path3694"
                   inkscape:connector-curvature="0"
                   style="fill:#005cc2;stroke:none" />
              </g>
            </g>
          </g>
        </g>
      </g>
    </g>
  </g>
</svg>
